<svg width="195" height="149" viewBox="0 0 195 149" fill="none" xmlns="http://www.w3.org/2000/svg">
<path d="M193.56 86.4158C191.661 95.8688 186.584 104.406 177.526 109.856C167.101 116.12 155.579 113.949 144.656 109.641C130.42 104.044 117.608 91.4808 101.179 96.9198C92.5388 99.7798 88.6268 106.294 83.2108 112.897C76.5168 121.073 69.6418 129.01 61.8058 136.123C52.3198 144.728 39.3958 151.297 26.9678 148.188C10.0638 143.948 2.14776 124.34 0.497756 106.984C-4.70424 52.2338 31.8298 4.69683 87.5078 0.241831C130.635 -3.20717 204.11 33.8358 193.56 86.4038V86.4158Z" fill="#DFFBF9"/>
<path fill-rule="evenodd" clip-rule="evenodd" d="M60.8122 123.327L65.4482 105.904L65.2512 105.57C65.1512 105.396 65.0512 105.221 64.9532 105.046L64.8172 104.801C64.7304 104.643 64.6447 104.484 64.5602 104.325L64.3922 104.003C64.3106 103.845 64.2299 103.687 64.1502 103.529C64.0162 103.263 63.8862 102.996 63.7602 102.726C63.6992 102.594 63.6362 102.461 63.5762 102.328C63.1968 101.496 62.8482 100.65 62.5312 99.792L62.4162 99.478C62.3498 99.2918 62.2848 99.1051 62.2212 98.918L62.1322 98.657C62.0652 98.457 62.0022 98.256 61.9382 98.053L61.8582 97.793C61.793 97.5795 61.7297 97.3655 61.6682 97.151L61.6082 96.943C61.5456 96.7168 61.4849 96.4902 61.4262 96.263L61.3732 96.057C61.3146 95.8255 61.2583 95.5935 61.2042 95.361L61.1632 95.181C61.1083 94.9391 61.0556 94.6968 61.0052 94.454L60.9692 94.275C60.918 94.0219 60.8697 93.7682 60.8242 93.514L60.8042 93.4C60.7564 93.1282 60.7117 92.8558 60.6702 92.583L60.6572 92.495C60.6154 92.2188 60.5771 91.9421 60.5422 91.665L60.5302 91.567C60.4954 91.2903 60.4637 91.0133 60.4352 90.736L60.4252 90.634C60.3972 90.349 60.3722 90.064 60.3502 89.778L60.3462 89.724C60.324 89.4275 60.3053 89.1309 60.2902 88.834L60.2872 88.786C60.2722 88.486 60.2612 88.186 60.2532 87.885V87.854C60.2448 87.5397 60.2404 87.2253 60.2402 86.911C60.2402 66.481 76.6882 49.918 96.9762 49.918C117.265 49.918 133.713 66.48 133.713 86.911C133.713 107.342 117.265 123.904 96.9772 123.904C92.4267 123.908 87.9156 123.06 83.6772 121.404L83.3292 121.265C83.1648 121.199 83.0008 121.131 82.8372 121.063L82.5122 120.925C82.3561 120.857 82.2004 120.789 82.0452 120.719C81.9182 120.663 81.7902 120.604 81.6642 120.546C81.5175 120.478 81.3711 120.41 81.2252 120.34L80.8552 120.16C80.4561 119.965 80.061 119.761 79.6702 119.55C79.5302 119.474 79.3902 119.398 79.2502 119.32L78.9002 119.123C78.7537 119.04 78.6076 118.955 78.4622 118.87L78.1582 118.689L78.1132 118.662L60.8112 123.33L60.8122 123.327Z" fill="#1285EF"/>
<path d="M107.463 86.8934C107.463 83.3534 110.313 80.4824 113.83 80.4824C117.346 80.4824 120.196 83.3524 120.196 86.8924C120.196 90.4344 117.346 93.3044 113.83 93.3044C110.313 93.3044 107.463 90.4334 107.463 86.8934ZM73.7559 86.8934C73.7559 83.3534 76.6059 80.4824 80.1229 80.4824C83.6389 80.4824 86.4899 83.3524 86.4899 86.8924C86.4899 90.4344 83.6389 93.3044 80.1229 93.3044C76.6059 93.3044 73.7559 90.4334 73.7559 86.8934ZM90.6099 86.8934C90.6099 83.3534 93.4599 80.4824 96.9769 80.4824C100.493 80.4824 103.343 83.3524 103.343 86.8934C103.343 90.4344 100.493 93.3034 96.9759 93.3034C93.4599 93.3034 90.6099 90.4344 90.6099 86.8934Z" fill="white"/>
<path d="M39.9926 70.1258C47.1426 45.2138 69.9536 27.0098 96.9746 27.0098C123.995 27.0098 146.807 45.2138 153.957 70.1258L154.299 71.3178H155.539C163.983 71.3178 170.848 78.2138 170.848 86.7458C170.848 95.2768 163.983 102.174 155.539 102.174H151.693L151.341 103.346C144.937 124.649 126.533 140.692 104.066 143.51L103.07 143.635L102.725 144.577C101.859 146.942 99.6046 148.615 96.9746 148.615C93.6016 148.615 90.8466 145.858 90.8466 142.433C90.8466 139.008 93.6016 136.25 96.9746 136.25C99.3286 136.25 101.38 137.589 102.408 139.569L102.94 140.595L104.086 140.443C124.54 137.723 141.356 123.445 147.871 104.352C149.802 98.6831 150.785 92.7345 150.78 86.7458C150.78 56.8398 126.702 32.5768 96.9746 32.5768C67.2486 32.5768 43.1706 56.8398 43.1706 86.7458C43.1706 91.2448 43.7166 95.6158 44.7456 99.7978C45.0536 101.054 44.1216 102.174 43.0356 102.174H38.4096C29.9656 102.174 23.0996 95.2768 23.0996 86.7458C23.0996 78.2138 29.9656 71.3178 38.4096 71.3178H39.6496L39.9926 70.1258Z" fill="#2DC6BA"/>
</svg>